<svg width="190" height="190" viewBox="0 0 190 190" fill="none" xmlns="http://www.w3.org/2000/svg">
<g clip-path="url(#clip0_30_85)">
<path fill-rule="evenodd" clip-rule="evenodd" d="M135.793 119.501H127.215L124.165 116.565C134.814 104.177 141.227 88.103 141.227 70.6135C141.227 31.616 109.611 0 70.6135 0C31.616 0 0 31.616 0 70.6135C0 109.611 31.616 141.227 70.6135 141.227C88.103 141.227 104.177 134.814 116.565 124.165L119.501 127.215V135.793L173.812 190L190 173.812L135.793 119.501ZM70.6135 119.501C43.567 119.501 21.7265 97.66 21.7265 70.6135C21.7265 43.567 43.567 21.7265 70.6135 21.7265C97.66 21.7265 119.501 43.567 119.501 70.6135C119.501 97.66 97.66 119.501 70.6135 119.501Z" fill="#767676"/>
</g>
<defs>
<clipPath id="clip0_30_85">
<rect width="190" height="190" fill="white"/>
</clipPath>
</defs>
</svg>
