<svg width="190" height="190" viewBox="0 0 190 190" fill="#BBBBBB" xmlns="http://www.w3.org/2000/svg">
<g clip-path="url(#clip0_75_10)">
<path d="M154.375 77.1875C154.375 94.2207 148.846 109.955 139.531 122.721L186.512 169.738C191.15 174.377 191.15 181.91 186.512 186.549C181.873 191.188 174.34 191.188 169.701 186.549L122.721 139.531C109.955 148.883 94.2207 154.375 77.1875 154.375C34.5488 154.375 0 119.826 0 77.1875C0 34.5488 34.5488 0 77.1875 0C119.826 0 154.375 34.5488 154.375 77.1875ZM68.2812 109.844C68.2812 114.779 72.252 118.75 77.1875 118.75C82.123 118.75 86.0938 114.779 86.0938 109.844V86.0938H109.844C114.779 86.0938 118.75 82.123 118.75 77.1875C118.75 72.252 114.779 68.2812 109.844 68.2812H86.0938V44.5312C86.0938 39.5957 82.123 35.625 77.1875 35.625C72.252 35.625 68.2812 39.5957 68.2812 44.5312V68.2812H44.5312C39.5957 68.2812 35.625 72.252 35.625 77.1875C35.625 82.123 39.5957 86.0938 44.5312 86.0938H68.2812V109.844Z" fill="#BBBBBB"/>
</g>
<defs>
<clipPath id="clip0_75_10">
<rect width="190" height="190" fill="white"/>
</clipPath>
</defs>
</svg>
