<svg width="190" height="190" viewBox="0 0 190 190" fill="none" xmlns="http://www.w3.org/2000/svg">
<path d="M154.375 77.1875C154.375 94.2207 148.846 109.955 139.531 122.721L186.512 169.738C191.15 174.377 191.15 181.91 186.512 186.549C181.873 191.188 174.34 191.188 169.701 186.549L122.721 139.531C109.955 148.883 94.2207 154.375 77.1875 154.375C34.5488 154.375 0 119.826 0 77.1875C0 34.5488 34.5488 0 77.1875 0C119.826 0 154.375 34.5488 154.375 77.1875ZM50.4688 68.2813C45.5332 68.2813 41.5625 72.252 41.5625 77.1875C41.5625 82.1231 45.5332 86.0938 50.4688 86.0938H103.906C108.842 86.0938 112.812 82.1231 112.812 77.1875C112.812 72.252 108.842 68.2813 103.906 68.2813H50.4688Z" fill="#BBBBBB"/>
</svg>
