<svg width="190" height="190" viewBox="0 0 190 190" fill="none" xmlns="http://www.w3.org/2000/svg">
<path d="M39.0019 75.1831C41.8594 67.0933 46.498 59.4858 53.0293 52.9917C76.2226 29.7983 113.814 29.7983 137.008 52.9917L143.354 59.3745H130.625C124.057 59.3745 118.75 64.6811 118.75 71.2495C118.75 77.8179 124.057 83.1245 130.625 83.1245H172.002H172.15C178.719 83.1245 184.025 77.8179 184.025 71.2495V29.687C184.025 23.1187 178.719 17.812 172.15 17.812C165.582 17.812 160.275 23.1187 160.275 29.687V42.7495L153.781 36.2183C121.311 3.74756 68.6894 3.74756 36.2187 36.2183C27.1641 45.2729 20.6328 55.9233 16.625 67.3159C14.4355 73.5132 17.7012 80.2671 23.8613 82.4565C30.0215 84.646 36.8125 81.3804 39.0019 75.2202V75.1831ZM14.4727 107.357C12.6172 107.914 10.8359 108.916 9.38867 110.4C7.9043 111.884 6.90234 113.666 6.38281 115.595C6.27148 116.041 6.16016 116.523 6.08594 117.005C5.97461 117.636 5.9375 118.267 5.9375 118.898V160.312C5.9375 166.88 11.2441 172.187 17.8125 172.187C24.3809 172.187 29.6875 166.88 29.6875 160.312V147.287L36.2187 153.781C68.6894 186.214 121.311 186.214 153.744 153.781C162.799 144.726 169.367 134.076 173.375 122.683C175.564 116.486 172.299 109.732 166.139 107.542C159.979 105.353 153.187 108.619 150.998 114.779C148.141 122.869 143.502 130.476 136.971 136.97C113.777 160.164 76.1855 160.164 52.9922 136.97L52.9551 136.933L46.6094 130.625H59.375C65.9434 130.625 71.25 125.318 71.25 118.75C71.25 112.181 65.9434 106.875 59.375 106.875H17.9609C17.3672 106.875 16.7734 106.912 16.1797 106.986C15.5859 107.06 15.0293 107.171 14.4727 107.357Z" fill="black"/>
</svg>
