<svg width="180" height="168" viewBox="0 0 180 168" fill="none" xmlns="http://www.w3.org/2000/svg">
<path d="M34.0019 64.1836C36.8594 56.0938 41.498 48.4863 48.0293 41.9922C71.2226 18.7988 108.814 18.7988 132.008 41.9922L138.354 48.375H125.625C119.057 48.375 113.75 53.6816 113.75 60.25C113.75 66.8184 119.057 72.125 125.625 72.125H167.002H167.15C173.719 72.125 179.025 66.8184 179.025 60.25V18.6875C179.025 12.1191 173.719 6.8125 167.15 6.8125C160.582 6.8125 155.275 12.1191 155.275 18.6875V31.75L148.781 25.2188C116.311 -7.25195 63.6894 -7.25195 31.2187 25.2188C22.1641 34.2734 15.6328 44.9238 11.625 56.3164C9.43555 62.5137 12.7012 69.2676 18.8613 71.457C25.0215 73.6465 31.8125 70.3809 34.0019 64.2207V64.1836ZM9.47266 96.3574C7.61719 96.9141 5.83594 97.916 4.38867 99.4004C2.9043 100.885 1.90234 102.666 1.38281 104.596C1.27148 105.041 1.16016 105.523 1.08594 106.006C0.974609 106.637 0.9375 107.268 0.9375 107.898V149.312C0.9375 155.881 6.24414 161.188 12.8125 161.188C19.3809 161.188 24.6875 155.881 24.6875 149.312V136.287L31.2187 142.781C63.6894 175.215 116.311 175.215 148.744 142.781C157.799 133.727 164.367 123.076 168.375 111.684C170.564 105.486 167.299 98.7324 161.139 96.543C154.979 94.3535 148.187 97.6191 145.998 103.779C143.141 111.869 138.502 119.477 131.971 125.971C108.777 149.164 71.1855 149.164 47.9922 125.971L47.9551 125.934L41.6094 119.625H54.375C60.9434 119.625 66.25 114.318 66.25 107.75C66.25 101.182 60.9434 95.875 54.375 95.875H12.9609C12.3672 95.875 11.7734 95.9121 11.1797 95.9863C10.5859 96.0605 10.0293 96.1719 9.47266 96.3574Z" fill="#BBBBBB"/>
</svg>
