<svg width="192" height="196" viewBox="0 0 192 196" fill="none" xmlns="http://www.w3.org/2000/svg">
<path d="M191.092 36.7334C191.092 55.9419 169.126 84.6016 159.648 96.0425C158.236 97.7261 156.155 98.3766 154.259 97.9557H119.731C113.152 97.9557 107.837 103.427 107.837 110.2C107.837 116.973 113.152 122.445 119.731 122.445H155.411C175.11 122.445 191.092 138.898 191.092 159.178C191.092 179.458 175.11 195.911 155.411 195.911H52.6806C55.9142 192.123 59.8539 187.264 63.8308 181.83C66.1724 178.616 68.5883 175.096 70.8926 171.423H155.411C161.99 171.423 167.305 165.951 167.305 159.178C167.305 152.405 161.99 146.934 155.411 146.934H119.731C100.032 146.934 84.0499 130.48 84.0499 110.2C84.0499 89.9203 100.032 73.4668 119.731 73.4668H134.523C126.718 61.4136 119.731 47.5621 119.731 36.7334C119.731 16.4535 135.713 0 155.411 0C175.11 0 191.092 16.4535 191.092 36.7334ZM44.318 187.149C42.9056 188.794 41.6419 190.248 40.564 191.473L39.895 192.238L39.8207 192.162C37.5907 193.922 34.3943 193.692 32.3872 191.473C23.021 180.988 0.794922 154.012 0.794922 134.689C0.794922 114.409 16.7769 97.9557 36.4756 97.9557C56.1744 97.9557 72.1563 114.409 72.1563 134.689C72.1563 146.168 64.314 160.326 55.9885 172.15C52.0116 177.774 47.9232 182.863 44.541 186.881L44.318 187.149ZM48.3692 134.689C48.3692 131.442 47.1161 128.327 44.8857 126.031C42.6552 123.735 39.63 122.445 36.4756 122.445C33.3213 122.445 30.2961 123.735 28.0656 126.031C25.8351 128.327 24.5821 131.442 24.5821 134.689C24.5821 137.937 25.8351 141.051 28.0656 143.347C30.2961 145.644 33.3213 146.934 36.4756 146.934C39.63 146.934 42.6552 145.644 44.8857 143.347C47.1161 141.051 48.3692 137.937 48.3692 134.689ZM155.411 48.9779C158.566 48.9779 161.591 47.6878 163.821 45.3915C166.052 43.0953 167.305 39.9808 167.305 36.7334C167.305 33.486 166.052 30.3715 163.821 28.0752C161.591 25.779 158.566 24.4889 155.411 24.4889C152.257 24.4889 149.232 25.779 147.001 28.0752C144.771 30.3715 143.518 33.486 143.518 36.7334C143.518 39.9808 144.771 43.0953 147.001 45.3915C149.232 47.6878 152.257 48.9779 155.411 48.9779Z" fill="black"/>
</svg>
